<svg xmlns="http://www.w3.org/2000/svg" width="900" height="500" viewBox="0 0 900 500">
  <rect width="900" height="500" fill="#ffffff"/>
  <text x="450" y="30" text-anchor="middle" font-family="monospace" font-size="16" font-weight="bold" fill="#333">Cold vs Warm Render Time (lower is better)</text>
  <line x1="100" y1="390" x2="860" y2="390" stroke="#eee" stroke-width="1"/>
  <text x="92" y="394" text-anchor="end" font-family="monospace" font-size="11" fill="#999">0</text>
  <line x1="100" y1="319" x2="860" y2="319" stroke="#eee" stroke-width="1"/>
  <text x="92" y="323" text-anchor="end" font-family="monospace" font-size="11" fill="#999">500</text>
  <line x1="100" y1="248" x2="860" y2="248" stroke="#eee" stroke-width="1"/>
  <text x="92" y="252" text-anchor="end" font-family="monospace" font-size="11" fill="#999">1000</text>
  <line x1="100" y1="176" x2="860" y2="176" stroke="#eee" stroke-width="1"/>
  <text x="92" y="180" text-anchor="end" font-family="monospace" font-size="11" fill="#999">1500</text>
  <line x1="100" y1="105" x2="860" y2="105" stroke="#eee" stroke-width="1"/>
  <text x="92" y="109" text-anchor="end" font-family="monospace" font-size="11" fill="#999">2000</text>
  <rect x="148" y="70" width="86" height="320" fill="#E8734A" rx="2" ry="2"/>
  <text x="190" y="65" text-anchor="middle" font-family="monospace" font-size="10" fill="#E8734A">2238µs</text>
  <rect x="242" y="239" width="86" height="151" fill="#4CAF50" rx="2" ry="2"/>
  <text x="285" y="234" text-anchor="middle" font-family="monospace" font-size="10" fill="#4CAF50">1057µs</text>
  <text x="242" y="415" text-anchor="end" font-family="monospace" font-size="11" fill="#333" transform="rotate(-30,242,405)">index</text>
  <text x="233" y="410" text-anchor="middle" font-family="monospace" font-size="10" fill="#666">2.1×</text>
  <rect x="338" y="166" width="86" height="224" fill="#E8734A" rx="2" ry="2"/>
  <text x="380" y="161" text-anchor="middle" font-family="monospace" font-size="10" fill="#E8734A">1567µs</text>
  <rect x="432" y="277" width="86" height="113" fill="#4CAF50" rx="2" ry="2"/>
  <text x="475" y="272" text-anchor="middle" font-family="monospace" font-size="10" fill="#4CAF50">790µs</text>
  <text x="432" y="415" text-anchor="end" font-family="monospace" font-size="11" fill="#333" transform="rotate(-30,432,405)">page</text>
  <text x="423" y="410" text-anchor="middle" font-family="monospace" font-size="10" fill="#666">2.0×</text>
  <rect x="528" y="90" width="86" height="300" fill="#E8734A" rx="2" ry="2"/>
  <text x="570" y="85" text-anchor="middle" font-family="monospace" font-size="10" fill="#E8734A">2096µs</text>
  <rect x="622" y="270" width="86" height="120" fill="#4CAF50" rx="2" ry="2"/>
  <text x="665" y="265" text-anchor="middle" font-family="monospace" font-size="10" fill="#4CAF50">838µs</text>
  <text x="622" y="415" text-anchor="end" font-family="monospace" font-size="11" fill="#333" transform="rotate(-30,622,405)">post</text>
  <text x="613" y="410" text-anchor="middle" font-family="monospace" font-size="10" fill="#666">2.5×</text>
  <rect x="718" y="82" width="86" height="308" fill="#E8734A" rx="2" ry="2"/>
  <text x="760" y="77" text-anchor="middle" font-family="monospace" font-size="10" fill="#E8734A">2156µs</text>
  <rect x="812" y="234" width="86" height="156" fill="#4CAF50" rx="2" ry="2"/>
  <text x="855" y="229" text-anchor="middle" font-family="monospace" font-size="10" fill="#4CAF50">1091µs</text>
  <text x="812" y="415" text-anchor="end" font-family="monospace" font-size="11" fill="#333" transform="rotate(-30,812,405)">tag</text>
  <text x="803" y="410" text-anchor="middle" font-family="monospace" font-size="10" fill="#666">2.0×</text>
  <rect x="700" y="55" width="12" height="12" fill="#E8734A" rx="2"/>
  <text x="716" y="65" font-family="monospace" font-size="11" fill="#333">Cold (first render)</text>
  <rect x="700" y="72" width="12" height="12" fill="#4CAF50" rx="2"/>
  <text x="716" y="82" font-family="monospace" font-size="11" fill="#333">Warm (cached)</text>
</svg>