<svg xmlns="http://www.w3.org/2000/svg" width="960" height="470" viewBox="0 0 960 470" font-family="monospace">
<rect width="960" height="470" fill="#ffffff"/>
<text x="480" y="32" text-anchor="middle" font-size="17" font-weight="bold" fill="#222">CMS latency per request path: old streaming vs new tree</text>
<text x="480" y="52" text-anchor="middle" font-size="12" fill="#777">lower is better — microseconds per request (mean, n=6, full route incl. DB+HTTP)</text>
<line x1="80" y1="390" x2="880" y2="390" stroke="#eee"/>
<text x="72" y="394" text-anchor="end" font-size="11" fill="#999">0</text>
<line x1="80" y1="337" x2="880" y2="337" stroke="#eee"/>
<text x="72" y="341" text-anchor="end" font-size="11" fill="#999">200</text>
<line x1="80" y1="283" x2="880" y2="283" stroke="#eee"/>
<text x="72" y="287" text-anchor="end" font-size="11" fill="#999">400</text>
<line x1="80" y1="230" x2="880" y2="230" stroke="#eee"/>
<text x="72" y="234" text-anchor="end" font-size="11" fill="#999">600</text>
<line x1="80" y1="177" x2="880" y2="177" stroke="#eee"/>
<text x="72" y="181" text-anchor="end" font-size="11" fill="#999">800</text>
<line x1="80" y1="123" x2="880" y2="123" stroke="#eee"/>
<text x="72" y="127" text-anchor="end" font-size="11" fill="#999">1000</text>
<line x1="80" y1="70" x2="880" y2="70" stroke="#eee"/>
<text x="72" y="74" text-anchor="end" font-size="11" fill="#999">1200</text>
<line x1="80" y1="390" x2="880" y2="390" stroke="#ccc"/>
<polyline points="150,214 370,175 590,123 810,123 " fill="none" stroke="#888888" stroke-width="2.5"/>
<polyline points="150,230 370,193 590,146 810,138 " fill="none" stroke="#2A9D8F" stroke-width="2.5"/>
<circle cx="150" cy="214" r="4" fill="#888888"/><text x="150" y="205" text-anchor="middle" font-size="10" fill="#888888">661</text>
<circle cx="150" cy="230" r="4" fill="#2A9D8F"/><text x="150" y="221" text-anchor="middle" font-size="10" fill="#2A9D8F">601</text>
<text x="150" y="410" text-anchor="middle" font-size="11" fill="#333">/pages/about</text>
<circle cx="370" cy="175" r="4" fill="#888888"/><text x="370" y="166" text-anchor="middle" font-size="10" fill="#888888">805</text>
<circle cx="370" cy="193" r="4" fill="#2A9D8F"/><text x="370" y="184" text-anchor="middle" font-size="10" fill="#2A9D8F">738</text>
<text x="370" y="410" text-anchor="middle" font-size="11" fill="#333">/posts/…</text>
<circle cx="590" cy="123" r="4" fill="#888888"/><text x="590" y="114" text-anchor="middle" font-size="10" fill="#888888">1001</text>
<circle cx="590" cy="146" r="4" fill="#2A9D8F"/><text x="590" y="137" text-anchor="middle" font-size="10" fill="#2A9D8F">915</text>
<text x="590" y="410" text-anchor="middle" font-size="11" fill="#333">/  (index)</text>
<circle cx="810" cy="123" r="4" fill="#888888"/><text x="810" y="114" text-anchor="middle" font-size="10" fill="#888888">1003</text>
<circle cx="810" cy="138" r="4" fill="#2A9D8F"/><text x="810" y="129" text-anchor="middle" font-size="10" fill="#2A9D8F">946</text>
<text x="810" y="410" text-anchor="middle" font-size="11" fill="#333">/tags/design</text>
<circle cx="126" cy="72" r="4" fill="#888888"/><text x="138" y="76" font-size="11" fill="#333">old: streaming giom — main</text>
<circle cx="126" cy="90" r="4" fill="#2A9D8F"/><text x="138" y="94" font-size="11" fill="#333">new: tree giom — feat/tag-render-tree</text>
</svg>
