<svg xmlns="http://www.w3.org/2000/svg" width="960" height="470" viewBox="0 0 960 470" font-family="monospace">
<rect width="960" height="470" fill="#ffffff"/>
<text x="480" y="32" text-anchor="middle" font-size="17" font-weight="bold" fill="#222">CMS route: first render (cold) vs cached (warm)</text>
<text x="480" y="52" text-anchor="middle" font-size="12" fill="#777">lower is better — microseconds per request (mean of 5)</text>
<line x1="80" y1="390" x2="880" y2="390" stroke="#eee"/>
<text x="72" y="394" text-anchor="end" font-size="11" fill="#999">0</text>
<line x1="80" y1="326" x2="880" y2="326" stroke="#eee"/>
<text x="72" y="330" text-anchor="end" font-size="11" fill="#999">500</text>
<line x1="80" y1="262" x2="880" y2="262" stroke="#eee"/>
<text x="72" y="266" text-anchor="end" font-size="11" fill="#999">1000</text>
<line x1="80" y1="198" x2="880" y2="198" stroke="#eee"/>
<text x="72" y="202" text-anchor="end" font-size="11" fill="#999">1500</text>
<line x1="80" y1="134" x2="880" y2="134" stroke="#eee"/>
<text x="72" y="138" text-anchor="end" font-size="11" fill="#999">2000</text>
<line x1="80" y1="70" x2="880" y2="70" stroke="#eee"/>
<text x="72" y="74" text-anchor="end" font-size="11" fill="#999">2500</text>
<line x1="80" y1="390" x2="880" y2="390" stroke="#ccc"/>
<polyline points="150,189 370,122 590,104 810,114 " fill="none" stroke="#E8734A" stroke-width="2.5"/>
<polyline points="150,289 370,283 590,255 810,250 " fill="none" stroke="#4CAF50" stroke-width="2.5"/>
<circle cx="150" cy="189" r="4" fill="#E8734A"/><text x="150" y="180" text-anchor="middle" font-size="10" fill="#E8734A">1567</text>
<circle cx="150" cy="289" r="4" fill="#4CAF50"/><text x="150" y="280" text-anchor="middle" font-size="10" fill="#4CAF50">790</text>
<text x="150" y="410" text-anchor="middle" font-size="11" fill="#333">page</text>
<circle cx="370" cy="122" r="4" fill="#E8734A"/><text x="370" y="113" text-anchor="middle" font-size="10" fill="#E8734A">2096</text>
<circle cx="370" cy="283" r="4" fill="#4CAF50"/><text x="370" y="274" text-anchor="middle" font-size="10" fill="#4CAF50">838</text>
<text x="370" y="410" text-anchor="middle" font-size="11" fill="#333">post</text>
<circle cx="590" cy="104" r="4" fill="#E8734A"/><text x="590" y="95" text-anchor="middle" font-size="10" fill="#E8734A">2238</text>
<circle cx="590" cy="255" r="4" fill="#4CAF50"/><text x="590" y="246" text-anchor="middle" font-size="10" fill="#4CAF50">1057</text>
<text x="590" y="410" text-anchor="middle" font-size="11" fill="#333">index</text>
<circle cx="810" cy="114" r="4" fill="#E8734A"/><text x="810" y="105" text-anchor="middle" font-size="10" fill="#E8734A">2156</text>
<circle cx="810" cy="250" r="4" fill="#4CAF50"/><text x="810" y="241" text-anchor="middle" font-size="10" fill="#4CAF50">1091</text>
<text x="810" y="410" text-anchor="middle" font-size="11" fill="#333">tag</text>
<circle cx="126" cy="72" r="4" fill="#E8734A"/><text x="138" y="76" font-size="11" fill="#333">cold: first render (compile + run)</text>
<circle cx="126" cy="90" r="4" fill="#4CAF50"/><text x="138" y="94" font-size="11" fill="#333">warm: cached bytecode</text>
</svg>
